<?xml version="1.0" encoding="utf-8"?>
<!-- Generator: Adobe Illustrator 19.0.0, SVG Export Plug-In . SVG Version: 6.00 Build 0)  -->
<svg version="1.1" id="Capa_1" xmlns="http://www.w3.org/2000/svg" xmlns:xlink="http://www.w3.org/1999/xlink" x="0px" y="0px"
	 viewBox="0 0 107.3 89.3" style="enable-background:new 0 0 107.3 89.3;" xml:space="preserve">
<style type="text/css">
	.st0{fill:#4FB8E9;}
</style>
<path id="XMLID_3_" class="st0" d="M93.6,46.7l6.9,7L68.2,86.2L51.1,68.9l6.9-7l10.2,10.3L93.6,46.7 M43.7,4.7
	c10.9,0,19.8,8.8,19.8,19.8s-8.8,19.8-19.8,19.8s-19.8-8.8-19.8-19.8S32.8,4.7,43.7,4.7 M43.7,14.6c-5.5,0-9.9,4.4-9.9,9.9
	s4.4,9.9,9.9,9.9s9.9-4.4,9.9-9.9S49.1,14.6,43.7,14.6 M43.7,49.1c3.4,0,7.4,0.4,11.9,1.3l-8.2,8.2l-3.7-0.1
	c-14.7,0-30.1,7.2-30.1,10.4v5.4h30.6l9.4,9.4H4.2V68.9C4.2,55.7,30.5,49.1,43.7,49.1z"/>
</svg>
