<?xml version="1.0" encoding="utf-8"?>
<!-- Generator: Adobe Illustrator 19.0.0, SVG Export Plug-In . SVG Version: 6.00 Build 0)  -->
<svg version="1.1" id="Capa_1" xmlns="http://www.w3.org/2000/svg" xmlns:xlink="http://www.w3.org/1999/xlink" x="0px" y="0px"
	 viewBox="0 0 149.3 101.4" style="enable-background:new 0 0 149.3 101.4;" xml:space="preserve">
<style type="text/css">
	.st0{fill:#4FB8E9;}
</style>
<path id="XMLID_2_" class="st0" d="M83.8,54.2h54.1v12H83.8V54.2 M83.8,30.2h54.1v12H83.8V30.2 M83.8,6.2h54.1v12H83.8V6.2
	 M49.9,63.3c12.1,0,36.3,6.1,36.3,18.1v13.6H13.6V81.5C13.6,69.4,37.8,63.3,49.9,63.3 M49.9,22.5c10,0,18.1,8.1,18.1,18.1
	s-8.1,18.1-18.1,18.1s-18.1-8.1-18.1-18.1S39.9,22.5,49.9,22.5 M49.9,72c-13.5,0-27.7,6.6-27.7,9.5v5h55.3v-5
	C77.5,78.6,63.3,72,49.9,72 M49.9,31.2c-5.3,0-9.5,4.3-9.5,9.5l0,0c0,5.3,4.3,9.5,9.5,9.5h0c5.3,0,9.5-4.3,9.5-9.5v0
	C59.4,35.4,55.1,31.2,49.9,31.2L49.9,31.2z"/>
</svg>
