<?xml version="1.0" encoding="utf-8"?>
<!-- Generator: Adobe Illustrator 19.0.0, SVG Export Plug-In . SVG Version: 6.00 Build 0)  -->
<svg version="1.1" id="Capa_1" xmlns="http://www.w3.org/2000/svg" xmlns:xlink="http://www.w3.org/1999/xlink" x="0px" y="0px"
	 viewBox="0 0 66.4 56.9" style="enable-background:new 0 0 66.4 56.9;" xml:space="preserve">
<style type="text/css">
	.st0{fill:#FFFFFF;}
</style>
<path id="XMLID_55_" class="st0" d="M33.2,8.9c-10.8,0-19.5,8.8-19.5,19.5c0,10.8,8.8,19.5,19.5,19.5s19.5-8.8,19.5-19.5
	C52.7,17.7,44,8.9,33.2,8.9z M39.6,30.4H36l0,13.4l-0.7,0.1h-5.7l0-0.7l0-0.2V30.4h-3.3l-0.1-0.9v-1.3c0-1,0-1.9,0-2.9
	c0-0.1,0-0.4,0.3-0.7c0.3-0.3,0.6-0.2,0.7-0.3l1.4,0c0.3,0,0.7,0,1,0l0-0.2c0-1,0-2.1,0-3.1c0-1.1,0.3-2,0.7-2.9
	c0.6-1.1,1.4-1.8,2.5-2.2c0.4-0.1,0.8-0.2,1.2-0.3l0.9-0.2h5.2l-0.1,2c0,1,0,2.1,0,3.1c0,0.1,0,0.4-0.3,0.7
	c-0.3,0.3-0.6,0.3-0.7,0.3c-0.7,0-1.5,0-2.2,0c-0.2,0-0.4,0-0.6,0.1c-0.2,0-0.3,0.1-0.3,0.3c0,0.6,0,1.3,0,1.9l0,0.4l4.2,0
	L39.6,30.4z"/>
</svg>
