<?xml version="1.0" encoding="utf-8"?>
<!-- Generator: Adobe Illustrator 19.0.0, SVG Export Plug-In . SVG Version: 6.00 Build 0)  -->
<svg version="1.1" id="Capa_1" xmlns="http://www.w3.org/2000/svg" xmlns:xlink="http://www.w3.org/1999/xlink" x="0px" y="0px"
	 viewBox="0 0 86 98.7" style="enable-background:new 0 0 86 98.7;" xml:space="preserve">
<style type="text/css">
	.st0{fill:#4FB8E9;}
</style>
<path id="XMLID_5_" class="st0" d="M42.8,2.3L5.1,19v25.1c0,23.2,16.1,45,37.7,50.3c21.6-5.3,37.7-27,37.7-50.3V19L42.8,2.3
	 M42.8,27.4c5.9,0,11.7,4.6,11.7,10.5v6.3c2.5,0,5,2.5,5,5.4v14.7c0,2.5-2.5,5-5.4,5h-23c-2.5,0-5-2.5-5-5.4V49.2c0-2.5,2.5-5,5-5
	v-6.3C31.1,32,37,27.4,42.8,27.4 M42.8,32.4c-3.4,0-6.3,2.1-6.3,5.4v6.3h12.6v-6.3C49.1,34.5,46.2,32.4,42.8,32.4z"/>
</svg>
