<?xml version="1.0" encoding="utf-8"?>
<!-- Generator: Adobe Illustrator 19.0.0, SVG Export Plug-In . SVG Version: 6.00 Build 0)  -->
<svg version="1.1" id="Capa_1" xmlns="http://www.w3.org/2000/svg" xmlns:xlink="http://www.w3.org/1999/xlink" x="0px" y="0px"
	 viewBox="0 0 86 90.7" style="enable-background:new 0 0 86 90.7;" xml:space="preserve">
<style type="text/css">
	.st0{fill:#4FB8E9;}
</style>
<path id="XMLID_6_" class="st0" d="M84.5,36.5H53.2l12.7-13c-12.6-12.5-33-12.9-45.6-0.5c-12.6,12.5-12.6,32.7,0,45.2
	c12.6,12.5,33,12.5,45.6,0c6.3-6.2,9.4-13.5,9.4-22.6h9.2c0,9.1-4.1,21-12.2,29c-16.2,16.1-42.5,16.1-58.7,0
	c-16.2-16-16.3-42.1-0.1-58.1s42.2-16,58.4,0l12.6-13V36.5 M45.3,26.7v19.6L61.5,56l-3.3,5.6L38.4,49.8V26.7H45.3z"/>
</svg>
